<svg width="558" height="268" viewBox="0 0 558 268" fill="none" xmlns="http://www.w3.org/2000/svg">
<path d="M183.582 0V267.047L290.582 235.51V201.024H278.582V226.537L197.582 250.41V16.6367L278.582 40.5103V66.0236H290.582V31.5368L183.582 0Z" fill="#5CA8FF"/>
<path d="M524.125 189.023V78.0234H541.975V174.323H557.125V189.023H524.125Z" fill="white"/>
<path d="M471.143 78.0234H491.843L505.193 189.023H487.643L485.693 164.873H476.393L474.443 189.023H457.793L471.143 78.0234ZM479.393 127.373L477.593 150.173H484.493L482.543 127.373L481.193 108.173H480.743L479.393 127.373Z" fill="white"/>
<path d="M446.57 92.7234H434.72V189.023H416.87V92.7234H405.02V78.0234H446.57V92.7234Z" fill="white"/>
<path d="M369.873 176.723V147.623C369.873 142.823 368.673 140.123 365.673 140.123H361.773V189.023H343.773V78.0234H367.173C379.923 78.0234 387.723 85.5234 387.723 99.0234V118.373C387.723 124.673 386.073 129.773 379.023 133.223C386.073 136.823 387.723 141.923 387.723 148.373V176.723C387.723 180.773 388.323 184.973 389.973 189.023H371.973C370.173 185.423 369.873 180.623 369.873 176.723ZM369.873 119.123V99.0234C369.873 94.0734 368.673 91.3734 365.673 91.3734H361.773V126.623H365.673C368.673 126.623 369.873 123.923 369.873 119.123Z" fill="white"/>
<path d="M322.614 99.1742V167.874C322.614 182.274 314.364 190.224 300.714 190.224C286.914 190.224 278.664 182.274 278.664 167.874V99.1742C278.664 84.7742 286.914 76.8242 300.714 76.8242C314.364 76.8242 322.614 84.7742 322.614 99.1742ZM296.514 169.374C296.514 173.874 297.714 176.574 300.714 176.574C303.564 176.574 304.764 173.874 304.764 169.374V97.6742C304.764 93.1742 303.564 90.4742 300.714 90.4742C297.714 90.4742 296.514 93.1742 296.514 97.6742V169.374Z" fill="white"/>
<path d="M232.455 189.023H214.605V78.0234H238.005C250.755 78.0234 258.555 85.5234 258.555 99.0234V126.323C258.555 139.673 250.755 147.173 238.005 147.173H232.455V189.023ZM232.605 133.823H236.505C239.505 133.823 240.705 131.123 240.705 126.323V99.0234C240.705 94.0734 239.505 91.3734 236.505 91.3734H232.605V133.823Z" fill="white"/>
<path d="M130.844 189.023V78.0234H165.644V92.7234H148.694V125.573H163.844V140.273H148.694V174.323H165.644V189.023H130.844Z" fill="white"/>
<path d="M84.182 189.023H66.332V78.0234H89.732C102.482 78.0234 110.282 85.5234 110.282 99.0234V126.323C110.282 139.673 102.482 147.173 89.732 147.173H84.182V189.023ZM84.332 133.823H88.232C91.232 133.823 92.432 131.123 92.432 126.323V99.0234C92.432 94.0734 91.232 91.3734 88.232 91.3734H84.332V133.823Z" fill="white"/>
<path d="M13.35 78.0234H34.05L47.4 189.023H29.85L27.9 164.873H18.6L16.65 189.023H0L13.35 78.0234ZM21.6 127.373L19.8 150.173H26.7L24.75 127.373L23.4 108.173H22.95L21.6 127.373Z" fill="white"/>
</svg>
