<svg width="761" height="711" viewBox="0 0 761 711" fill="none" xmlns="http://www.w3.org/2000/svg">
<path d="M378.213 705C354.869 705 330.577 701.296 307.723 694.278C288.325 698.514 269.976 700.493 250.281 700.493C232.365 700.493 214.439 698.641 196.988 694.988C166.142 688.52 137.26 676.394 111.139 658.95C58.7514 623.985 24.1795 573.656 11.1653 513.408C2.82506 474.79 4.61166 434.287 16.3304 396.219C18.9298 381.946 23.028 367.173 28.2438 353.255C26.254 335.329 26.2202 316.633 28.1676 298.918C26.9145 277.263 28.7434 254.745 33.4681 233.673C43.0954 170.559 80.0467 110.412 132.459 72.4965C177.429 29.6086 236.505 6 298.909 6C328.256 6 356.139 10.9382 384.141 21.0936C399.272 25.2877 443.369 37.8108 485.638 77.9336C490.363 82.4237 494.808 86.8799 499.143 91.4883C602.029 119.13 657.769 184.003 686.473 233.867C704.729 265.577 714.348 296.576 719.259 317.512C727.446 333.147 733.992 349.636 738.708 366.548C774.465 460.246 750.418 560.422 675.864 628.111C652.13 649.665 624.95 665.909 595.069 676.385C585.45 681.112 577.381 684.452 570.742 687.099C542.682 698.278 513.233 703.943 483.208 703.943C479.042 703.943 474.8 703.825 470.583 703.596C463.276 704.281 455.892 704.636 448.61 704.636C444.978 704.636 441.261 704.552 437.552 704.374C433.107 704.619 426.494 704.915 418.45 704.915C415.072 704.915 411.829 704.865 408.56 704.755C406.045 704.755 403.708 704.721 401.414 704.653C399.314 704.594 397.163 704.501 395.021 704.391C389.416 704.797 383.768 705 378.213 705ZM394.928 691.69C397.223 691.826 399.526 691.927 401.786 691.986C404.03 692.054 406.325 692.079 408.789 692.088C411.981 692.198 415.148 692.249 418.458 692.249C426.325 692.249 432.726 691.961 437.51 691.69C441.227 691.877 444.961 691.97 448.61 691.97C455.808 691.97 463.106 691.606 470.329 690.896C474.63 691.149 478.957 691.276 483.208 691.276C511.615 691.276 539.481 685.915 566.035 675.337C572.622 672.716 580.624 669.401 590.149 664.691C618.701 654.781 644.67 639.324 667.329 618.751C738.107 554.486 760.799 459.426 726.634 370.539C721.993 353.762 715.482 337.443 707.26 321.994C702.578 301.488 693.306 271.2 675.466 240.218C647.524 191.698 593.147 128.787 492.344 102.844C487.391 97.4581 482.31 92.3001 476.883 87.1589C436.9 49.2092 394.759 37.2358 380.263 33.2193C353.523 23.4613 326.91 18.7176 298.909 18.7176C239.46 18.7176 183.288 41.2861 140.605 82.2968C90.3683 118.31 55.0343 175.683 45.9574 236.015C41.3343 256.444 39.5985 278.26 40.9109 299.239C38.8279 317.411 38.938 336.538 41.2242 354.853C35.6527 369.169 31.3429 384.415 28.6926 399.221C17.4142 435.437 15.6445 473.979 23.5784 510.728C35.8813 567.694 68.5989 615.301 118.2 648.397C142.967 664.936 170.35 676.428 199.596 682.567C216.184 686.042 233.237 687.801 250.281 687.801C270.069 687.801 288.604 685.678 308.282 681.146C330.873 688.452 354.971 692.308 378.213 692.308C383.743 692.316 389.356 692.105 394.928 691.69ZM394.818 678.973C397.273 679.125 399.729 679.235 402.142 679.303C404.327 679.362 406.553 679.396 409.009 679.396C412.125 679.506 415.215 679.556 418.467 679.556C426.189 679.556 432.396 679.269 437.484 678.973C441.202 679.167 444.944 679.269 448.619 679.269C455.74 679.269 462.954 678.897 470.083 678.161C474.469 678.44 478.881 678.576 483.216 678.576C509.998 678.576 536.289 673.519 561.344 663.533C567.897 660.928 575.831 657.631 585.238 652.946C612.461 643.611 637.202 628.948 658.794 609.339C725.795 548.5 747.133 458.564 714.568 374.479C710.021 357.838 703.526 341.687 695.262 326.433C690.8 306.359 681.892 276.764 664.467 246.509C637.287 199.334 584.273 138.401 485.519 114.184C479.965 108.003 474.249 102.134 468.136 96.325C430.431 60.54 390.254 49.1162 376.376 45.2773C350.898 35.9251 325.555 31.3759 298.909 31.3759C242.432 31.3759 189.148 52.9129 148.759 92.0464C100.673 126.216 66.9732 180.807 58.4466 238.357C53.9251 258.144 52.274 279.267 53.6541 299.569C51.4188 318.197 51.622 337.764 54.2469 356.468C48.2774 371.164 43.739 386.892 41.0548 402.231C30.2082 436.587 28.4555 473.158 35.9914 508.056C47.5916 561.742 78.4633 606.625 125.262 637.861C148.674 653.496 174.558 664.361 202.204 670.154C217.936 673.451 234.117 675.117 250.281 675.117C270.154 675.117 288.875 672.842 308.866 667.972C331.178 675.608 355.072 679.624 378.213 679.624C383.7 679.633 389.28 679.413 394.818 678.973ZM394.716 666.255C397.316 666.425 399.932 666.551 402.498 666.627C404.606 666.687 406.74 666.712 409.068 666.712H409.212C412.26 666.822 415.292 666.873 418.458 666.873C426.028 666.873 432.074 666.594 437.451 666.272C441.176 666.484 444.927 666.594 448.602 666.594C455.647 666.594 462.776 666.205 469.812 665.444C474.283 665.748 478.779 665.9 483.199 665.9C508.364 665.9 533.072 661.14 556.619 651.762C563.13 649.166 571.013 645.894 580.302 641.226C606.195 632.474 629.717 618.59 650.225 599.962C713.458 542.547 733.433 457.727 702.459 378.453C698.006 361.956 691.537 345.983 683.213 330.923C678.988 311.272 670.436 282.37 653.434 252.834C627.041 207.003 575.383 148.066 478.652 125.582C472.514 118.572 466.172 111.977 459.372 105.516C423.954 71.9046 385.724 61.022 372.456 57.3522C348.248 48.4059 324.175 44.0512 298.892 44.0512C245.37 44.0512 194.99 64.5565 156.896 101.813C110.986 134.123 78.9036 185.923 70.9443 240.7C66.5159 259.844 64.9495 280.264 66.4228 299.89C64.0096 318.992 64.3229 338.998 67.3373 358.083C60.9275 373.135 56.1435 389.344 53.434 405.241C43.0192 437.745 41.2834 472.347 48.4214 505.384C59.3018 555.78 88.3192 597.949 132.324 627.316C154.381 642.046 178.767 652.278 204.812 657.74C219.689 660.852 234.989 662.433 250.281 662.433C270.281 662.433 289.129 659.99 309.485 654.739C331.499 662.729 355.166 666.94 378.213 666.94C383.675 666.949 389.221 666.712 394.716 666.255ZM394.615 653.538C397.366 653.732 400.135 653.876 402.862 653.952C404.852 654.011 406.85 654.037 409.017 654.037H409.415C412.387 654.147 415.342 654.197 418.467 654.197C426.198 654.197 432.311 653.885 437.459 653.572C441.185 653.8 444.927 653.91 448.619 653.91C455.579 653.91 462.624 653.504 469.575 652.709C474.122 653.047 478.703 653.217 483.216 653.217C506.764 653.217 529.888 648.76 551.928 639.983C558.406 637.404 566.229 634.149 575.408 629.498C599.972 621.321 622.266 608.232 641.698 590.584C701.156 536.594 719.784 456.898 690.394 382.436C686.033 366.082 679.581 350.287 671.198 335.439C667.21 316.202 659.031 287.993 642.435 259.176C616.83 214.69 566.509 157.748 471.785 137.04C465.071 129.159 458.128 121.819 450.634 114.716C417.502 83.2692 381.202 72.9278 368.561 69.4355C345.614 60.8952 322.829 56.7349 298.909 56.7349C248.351 56.7349 200.866 76.2086 165.067 111.596C121.282 142.029 90.8424 191.047 83.4336 243.042C79.0899 261.543 77.625 281.262 79.183 300.212C76.5666 319.804 77.0154 340.25 80.487 359.698C73.5777 375.096 68.5312 391.771 65.8132 408.252C55.8302 438.895 54.1114 471.535 60.8429 502.712C71.0205 549.827 98.1836 589.274 139.394 616.772C160.096 630.597 182.983 640.203 207.437 645.327C221.459 648.261 235.878 649.75 250.298 649.75C269.638 649.75 287.868 647.323 307.673 642.106C308.494 641.886 309.324 641.666 310.153 641.438C331.847 649.834 355.284 654.257 378.23 654.257C383.641 654.265 389.153 654.02 394.615 653.538ZM394.505 640.812C397.417 641.04 400.338 641.192 403.217 641.269C405.089 641.319 406.951 641.345 408.967 641.345H409.619C412.514 641.455 415.402 641.505 418.458 641.505C425.986 641.505 431.786 641.209 437.467 640.863C441.176 641.108 444.919 641.226 448.61 641.226C455.494 641.226 462.454 640.803 469.313 639.966C473.945 640.347 478.61 640.533 483.208 640.533C505.138 640.533 526.67 636.381 547.212 628.204C553.647 625.642 561.412 622.404 570.488 617.761C593.714 610.168 614.789 597.873 633.146 581.198C688.836 530.633 706.092 456.061 678.302 386.402C674.052 370.192 667.617 354.583 659.158 339.954C655.424 321.131 647.617 293.608 631.427 265.492C606.601 222.376 557.627 167.455 464.868 148.54C457.603 139.746 450.05 131.653 441.887 123.908C411.033 94.6254 376.672 84.8336 364.632 81.5104C342.964 73.3759 321.457 69.4186 298.909 69.4186C251.357 69.4186 206.726 87.8692 173.221 121.388C131.587 149.935 102.764 196.171 95.9313 245.393C91.6722 263.26 90.3005 282.277 91.9601 300.541C89.1151 320.641 89.7248 341.527 93.7213 361.33C86.2532 377.041 80.9103 394.19 78.1839 411.262C68.6243 440.045 66.9224 470.715 73.2474 500.031C82.7138 543.866 108.023 580.581 146.439 606.219C165.786 619.131 187.175 628.111 210.028 632.906C223.194 635.662 236.742 637.057 250.281 637.057C268.494 637.057 285.691 634.766 304.421 629.836C306.546 629.278 308.689 628.669 310.814 628.035C332.16 636.897 355.352 641.573 378.213 641.573C383.607 641.581 389.085 641.319 394.505 640.812ZM394.403 628.077C397.468 628.331 400.559 628.509 403.581 628.593C405.334 628.644 407.087 628.669 408.924 628.669H409.839C412.658 628.779 415.478 628.83 418.458 628.83C426.231 628.83 432.226 628.483 437.501 628.154C441.202 628.416 444.927 628.542 448.602 628.542C455.41 628.542 462.277 628.094 469.05 627.215C473.758 627.638 478.517 627.849 483.208 627.849C503.521 627.849 523.47 624.002 542.513 616.417C548.914 613.863 556.636 610.642 565.594 606.008C587.482 598.998 607.33 587.498 624.603 571.812C676.516 524.671 692.417 455.224 666.211 390.368C662.079 374.301 655.652 358.887 647.092 344.486C643.612 326.07 636.195 299.222 620.412 271.809C596.415 230.13 548.795 177.196 457.907 160.099C452.234 153.013 444.114 143.517 433.141 133.099C404.53 105.948 373.15 97.0099 360.703 93.5853C340.305 85.8652 320.086 82.1108 298.917 82.1108C254.71 82.1108 213.237 99.2761 182.12 130.453L181.315 131.239C141.849 157.9 114.686 201.321 108.429 247.735C104.246 264.959 102.985 283.275 104.746 300.863C101.638 321.495 102.434 342.829 107.057 362.971C98.9372 378.961 93.2726 396.574 90.563 414.281C81.4268 441.204 79.7334 469.911 85.6605 497.359C94.4156 537.905 117.878 571.905 153.5 595.683C171.493 607.699 191.383 616.045 212.636 620.501C224.947 623.08 237.614 624.382 250.29 624.382C267.377 624.382 283.549 622.218 301.187 617.584C304.65 616.671 308.113 615.647 311.525 614.531C332.49 623.943 355.436 628.898 378.222 628.898C383.582 628.898 389.018 628.619 394.403 628.077ZM394.293 615.334C397.519 615.63 400.753 615.825 403.937 615.91C405.58 615.952 407.205 615.977 408.924 615.977C409.305 615.977 409.686 615.977 410.067 615.977C412.819 616.087 415.571 616.138 418.458 616.138C426.155 616.138 431.947 615.783 437.578 615.436C441.252 615.715 444.953 615.859 448.602 615.859C455.333 615.859 462.116 615.385 468.796 614.447C473.589 614.92 478.432 615.165 483.208 615.165C501.903 615.165 520.269 611.622 537.805 604.638C544.189 602.093 551.86 598.88 560.709 594.246C581.259 587.828 599.87 577.123 616.068 562.418C664.204 518.71 678.743 454.378 654.12 394.325C648.548 372.188 639.412 356.198 635.026 349.036C631.817 331.016 624.789 304.845 609.413 278.125C586.449 238.256 540.531 187.47 452.167 171.954L450.905 171.734C444.258 163.168 435.91 153.241 424.386 142.299C398.035 117.287 369.467 109.161 356.74 105.66C337.621 98.3544 318.697 94.803 298.909 94.803C258.08 94.803 219.757 110.683 191.053 139.467C191.053 139.467 189.706 140.777 189.359 141.124C152.103 165.908 126.608 206.504 120.935 250.094C116.829 266.684 115.669 284.289 117.557 301.184C114.136 322.374 115.169 344.157 120.546 364.628C111.672 380.855 105.635 398.925 102.959 417.308C94.2463 442.371 92.5528 469.108 98.082 494.695C106.126 531.96 127.734 563.238 160.562 585.147C177.2 596.258 195.591 603.978 215.244 608.096C226.7 610.498 238.495 611.715 250.29 611.715C266.259 611.715 281.399 609.686 297.944 605.331C302.778 604.054 307.571 602.566 312.245 600.875C332.803 610.937 355.487 616.222 378.213 616.222C383.548 616.214 388.95 615.918 394.293 615.334ZM394.183 602.583C397.553 602.921 400.948 603.141 404.301 603.234C405.825 603.277 407.341 603.302 408.933 603.302C409.39 603.302 409.839 603.302 410.288 603.293C412.972 603.403 415.647 603.454 418.467 603.454C425.893 603.454 431.507 603.107 436.993 602.761C437.205 602.744 437.442 602.735 437.688 602.718C441.32 603.014 444.995 603.167 448.61 603.167C455.266 603.167 461.963 602.659 468.542 601.661C473.42 602.203 478.348 602.473 483.216 602.473C500.286 602.473 517.077 599.235 533.105 592.851C539.473 590.314 547.11 587.109 555.832 582.475C575.035 576.658 592.419 566.756 607.524 553.032C651.884 512.757 665.051 453.549 642.029 398.299C636.711 376.61 627.753 361.339 622.935 353.619C620.014 335.997 613.401 310.485 598.405 284.45C576.788 246.923 533.495 199.114 449.974 184.443L445.41 183.64L444.275 183.521C444.14 183.479 443.996 183.437 443.852 183.386C437.408 174.88 428.746 163.929 415.639 151.482C391.549 128.618 365.656 121.253 352.769 117.71C334.937 110.818 317.308 107.47 298.909 107.47C261.484 107.47 226.344 122.031 200.003 148.455C199.833 148.624 199.249 149.191 199.241 149.208C198.673 149.757 198.055 150.366 197.395 151.017C162.332 173.916 138.513 211.671 133.433 252.428C129.386 268.384 128.336 285.279 130.376 301.48C126.583 323.254 127.904 345.518 134.212 366.277C124.458 382.656 117.955 401.276 115.355 420.31C107.049 443.521 105.372 468.271 110.495 492.006C117.836 525.99 137.59 554.546 167.615 574.586C182.89 584.784 199.791 591.878 217.843 595.666C228.444 597.882 239.359 599.015 250.281 599.015C265.133 599.015 279.239 597.121 294.701 593.053C300.958 591.405 307.088 589.375 313.007 586.991C333.108 597.831 355.513 603.53 378.213 603.53C383.514 603.53 388.882 603.209 394.183 602.583ZM394.064 589.815C397.587 590.204 401.134 590.457 404.648 590.551C406.062 590.593 407.459 590.61 408.916 590.61C409.441 590.61 409.957 590.61 410.482 590.601C413.09 590.711 415.707 590.77 418.45 590.77C425.478 590.77 430.888 590.432 436.147 590.111C436.638 590.077 437.23 590.043 437.823 590.009C441.396 590.331 445.012 590.491 448.585 590.491C455.173 590.491 461.785 589.942 468.263 588.868C473.216 589.485 478.229 589.798 483.191 589.798C498.644 589.798 513.842 586.864 528.372 581.08C534.731 578.543 542.335 575.347 550.937 570.696C568.795 565.479 584.942 556.389 598.955 543.655C639.531 506.804 651.334 452.729 629.895 402.273C624.62 380.06 615.052 364.949 610.928 358.43C610.877 358.345 610.827 358.261 610.767 358.185C608.151 340.969 601.961 316.134 587.364 290.783C567.11 255.607 526.442 210.766 447.755 196.941L443.649 196.222L441.701 196.028C440.778 195.748 439.093 195.216 436.079 194.21C429.22 185.086 420.668 173.789 406.867 160.682C385.047 139.974 361.677 133.319 348.747 129.776C332.202 123.308 315.886 120.162 298.884 120.162C264.862 120.162 232.923 133.395 208.953 157.435C208.8 157.587 208.089 158.281 208.089 158.281C207.293 159.059 206.378 159.955 205.371 160.953C172.543 181.949 150.418 216.863 145.939 254.779C141.942 270.092 141.011 286.276 143.23 301.784C139.081 323.719 140.605 345.991 147.666 366.641C147.014 368.315 146.379 370.006 145.744 371.731C136.261 387.307 130.063 405.089 127.768 423.345C119.868 444.696 118.192 467.476 122.908 489.343C129.538 520.037 147.438 545.878 174.677 564.05C188.597 573.343 203.999 579.812 220.451 583.262C230.197 585.299 240.231 586.34 250.281 586.34C264.007 586.34 277.089 584.581 291.466 580.793C299.214 578.755 306.699 576.091 313.811 572.844C333.405 584.64 355.521 590.846 378.222 590.846C383.489 590.846 388.815 590.5 394.064 589.815ZM393.946 577.03C397.604 577.486 401.321 577.774 405.004 577.875C406.308 577.909 407.603 577.926 408.916 577.926C409.509 577.926 410.101 577.926 410.694 577.918C413.234 578.027 415.774 578.087 418.45 578.087C425.08 578.087 430.27 577.765 435.334 577.452C436.121 577.402 437.137 577.334 438.06 577.283C441.557 577.63 445.088 577.808 448.585 577.808C455.105 577.808 461.625 577.207 468 576.032C473.03 576.751 478.127 577.114 483.191 577.114C497.026 577.114 510.642 574.484 523.664 569.293C530.023 566.756 537.602 563.56 546.086 558.883C562.588 554.275 577.491 545.997 590.412 534.269C627.211 500.86 637.634 451.909 617.778 406.239C613.045 385.522 604.078 371.342 600.192 365.211C599.658 364.374 599.125 363.537 598.583 362.692C596.288 345.898 590.539 321.749 576.348 297.1C557.44 264.266 519.405 222.401 445.554 209.43L441.904 208.787L439.271 208.525C438.17 208.229 435.393 207.384 428.416 205.016L428.297 204.974C427.637 204.111 426.943 203.181 426.291 202.31C419.652 193.474 411.388 182.481 398.112 169.874C378.569 151.322 357.579 145.343 344.725 141.817C329.476 135.771 314.472 132.837 298.884 132.837C268.257 132.837 239.519 144.743 217.953 166.373C217.733 166.593 217.513 166.813 217.25 167.066L217.005 167.312C215.972 168.318 214.744 169.519 213.364 170.914C182.738 190.007 162.306 222.055 158.454 257.129C154.491 271.817 153.695 287.266 156.117 302.063C151.527 324.159 153.306 346.397 161.265 366.869C159.859 370.251 158.53 373.693 157.251 377.269C148.047 392.016 142.171 408.928 140.198 426.381C132.696 445.863 131.011 466.673 135.33 486.671C141.248 514.085 157.302 537.203 181.739 553.506C194.304 561.894 208.207 567.728 223.059 570.848C231.95 572.709 241.111 573.656 250.281 573.656C262.881 573.656 274.938 572.024 288.223 568.532C297.571 566.071 306.419 562.646 314.641 558.309C333.659 571.33 355.47 578.163 378.213 578.163C383.463 578.163 388.747 577.782 393.946 577.03ZM393.827 564.219C397.637 564.76 401.507 565.09 405.36 565.2C406.545 565.234 407.722 565.251 408.924 565.251C409.593 565.251 410.254 565.242 410.923 565.234C413.395 565.352 415.867 565.403 418.458 565.403C424.707 565.403 429.703 565.09 434.546 564.794C435.672 564.726 437.247 564.625 438.399 564.566C441.777 564.938 445.198 565.124 448.593 565.124C455.054 565.124 461.481 564.464 467.746 563.154C472.844 563.999 478.034 564.422 483.208 564.422C495.426 564.422 507.458 562.097 518.974 557.505C525.341 554.968 532.911 551.755 541.268 547.045C556.416 543.054 570.065 535.605 581.877 524.874C614.891 494.898 623.934 451.08 605.662 410.196C601.496 390.976 593.105 377.726 589.472 371.985C588.702 370.767 587.923 369.558 587.127 368.315C586.89 367.943 586.627 367.537 586.356 367.123C584.4 350.769 579.125 327.338 565.349 303.416C547.796 272.925 512.378 234.036 443.369 221.919L440.177 221.361L437.163 221.057C434.953 220.617 427.569 218.114 424.36 217.032L421.303 216C421.058 215.916 420.829 215.84 420.626 215.763C419.432 214.309 417.713 212.017 416.138 209.92C409.788 201.465 401.88 190.937 389.365 179.065C372.1 162.678 353.345 157.325 340.678 153.858C326.724 148.244 313.041 145.521 298.884 145.521C271.661 145.521 246.115 156.108 226.962 175.319C226.683 175.598 226.404 175.877 226.065 176.207L225.904 176.359C224.617 177.611 223.076 179.116 221.357 180.892C192.899 198.082 174.177 227.263 170.96 259.488C167.014 273.542 166.362 288.255 169.046 302.326C163.974 324.353 166.091 346.964 175.041 366.953C172.755 372.078 170.672 377.329 168.724 382.85C159.792 396.76 154.245 412.784 152.62 429.433C145.499 447.055 143.797 465.878 147.717 484.007C152.925 508.14 167.124 528.527 188.775 542.978C199.986 550.462 212.39 555.67 225.642 558.452C233.677 560.135 241.958 560.989 250.264 560.989C261.738 560.989 272.77 559.492 284.972 556.279C296.064 553.362 306.292 548.973 315.488 543.19C333.828 557.793 355.436 565.496 378.197 565.496C383.438 565.479 388.679 565.056 393.827 564.219ZM393.7 551.366C397.646 552.017 401.676 552.406 405.715 552.516C406.782 552.55 407.84 552.559 408.924 552.559C409.669 552.559 410.415 552.55 411.151 552.542C413.539 552.66 415.935 552.719 418.458 552.719C424.309 552.719 429.102 552.423 433.742 552.136C435.486 552.026 437.603 551.891 438.873 551.857C442.091 552.246 445.351 552.44 448.585 552.44C454.986 552.44 461.328 551.696 467.476 550.225C472.641 551.239 477.916 551.747 483.199 551.747C493.8 551.747 504.249 549.726 514.266 545.735C520.65 543.189 528.237 539.959 536.458 535.19C550.243 531.833 562.639 525.221 573.333 515.505C602.554 488.971 610.208 450.285 593.519 414.188C589.929 396.464 582.139 384.153 578.744 378.783C577.99 377.591 577.228 376.399 576.466 375.215C575.738 374.09 574.858 372.703 574.07 371.443C572.478 355.597 567.686 332.91 554.358 309.758C538.152 281.617 505.367 245.697 441.185 234.425L438.45 233.943L435.656 233.664C433.175 233.411 425.435 230.798 420.304 229.056L417.265 228.033C415.021 227.28 413.81 226.748 413.276 226.485C411.515 224.896 409.271 221.902 405.995 217.548C399.924 209.472 392.371 199.41 380.635 188.274C365.428 173.839 348.807 169.24 336.622 165.908C323.972 160.733 311.627 158.213 298.909 158.213C275.09 158.213 252.745 167.472 235.98 184.274C235.65 184.612 235.303 184.942 234.888 185.348L234.795 185.432C233.254 186.938 231.399 188.747 229.35 190.912C203.068 206.183 186.065 232.472 183.517 261.848C179.554 275.267 179.071 289.236 182.086 302.554C176.32 324.725 178.784 347.294 189.122 366.827C185.778 373.718 182.856 380.855 180.24 388.473C171.561 401.512 166.362 416.64 165.134 432.486C158.377 448.239 156.659 465.075 160.164 481.318C164.669 502.17 177.014 519.835 195.862 532.417C205.718 538.995 216.624 543.57 228.275 546.014C235.455 547.519 242.864 548.28 250.29 548.28C260.645 548.28 270.645 546.918 281.763 543.993C294.76 540.568 306.504 534.81 316.326 527.107C317.935 528.595 319.586 530.049 321.279 531.478C337.799 545.422 357.494 552.787 378.23 552.787C383.412 552.795 388.611 552.313 393.7 551.366ZM393.573 538.454C397.646 539.258 401.837 539.723 406.079 539.841C407.028 539.866 407.976 539.883 408.933 539.883C409.746 539.883 410.558 539.875 411.371 539.858H411.397C413.7 539.976 416.02 540.035 418.475 540.035C423.928 540.035 428.526 539.748 432.971 539.469C435.41 539.317 437.933 539.156 439.44 539.156C439.508 539.156 439.576 539.156 439.635 539.156C442.599 539.545 445.621 539.748 448.61 539.748C454.969 539.748 461.21 538.885 467.222 537.177C472.446 538.429 477.814 539.055 483.225 539.055C492.208 539.055 501.074 537.338 509.583 533.947C515.824 531.461 523.283 528.282 531.234 523.555C531.404 523.454 531.573 523.361 531.725 523.268C544.13 520.562 555.256 514.803 564.815 506.111C590.243 483.026 596.5 449.474 581.377 418.145C578.397 401.935 571.191 390.537 568.041 385.556C567.296 384.381 566.543 383.205 565.798 382.047C564.468 379.975 562.766 377.32 561.708 375.477C560.489 360.256 556.221 338.39 543.368 316.066C528.516 290.268 498.356 257.332 439.009 246.906L436.731 246.509L434.402 246.272C430.482 245.875 423.259 243.431 416.257 241.063L413.209 240.04C407.773 238.214 406.113 237.021 405.834 236.801C402.735 234.332 400.144 230.882 395.842 225.166C390.059 217.463 382.854 207.874 371.88 197.465C358.908 185.153 344.581 181.238 333.066 178.093L332.49 177.932C321.152 173.205 310.153 170.905 298.9 170.905C278.486 170.905 259.333 178.837 244.972 193.237C244.583 193.626 244.193 194.015 243.753 194.429L243.66 194.514C241.848 196.281 239.68 198.395 237.309 200.991C213.178 214.326 197.92 237.706 196.057 264.232C191.154 279.816 192.594 293.269 195.21 302.74C188.902 323.786 191.171 345.188 201.73 363.427C202.314 364.434 202.924 365.431 203.559 366.412C203.347 366.827 203.127 367.241 202.915 367.647C198.555 375.984 194.871 384.685 191.696 394.181C183.246 406.324 178.42 420.538 177.641 435.572C171.222 449.465 169.461 464.297 172.56 478.655C176.354 496.217 186.844 511.167 202.898 521.881C211.4 527.555 220.807 531.504 230.857 533.609C237.182 534.937 243.711 535.605 250.264 535.605C259.494 535.605 268.469 534.379 278.494 531.74C293.964 527.665 306.978 520.08 316.733 509.518C320.594 513.822 324.819 517.898 329.442 521.805C343.642 533.787 360.5 540.12 378.197 540.12C383.395 540.112 388.544 539.553 393.573 538.454ZM393.429 525.441C397.612 526.464 401.973 527.039 406.426 527.166C407.256 527.191 408.086 527.2 408.924 527.2C409.678 527.2 410.431 527.191 411.194 527.183L411.642 527.174C413.861 527.301 416.096 527.36 418.45 527.36C423.505 527.36 427.866 527.09 432.15 526.819C434.91 526.65 437.51 526.481 439.415 526.481C440.329 526.481 440.736 526.523 440.753 526.523C443.335 526.887 445.977 527.073 448.585 527.073C454.919 527.073 461.066 526.033 466.917 523.969C472.192 525.568 477.653 526.379 483.208 526.379C490.566 526.379 497.856 524.967 504.859 522.177C510.642 519.868 517.526 516.943 524.723 512.664C525.832 512.004 526.628 511.556 527.17 511.252C538.118 509.214 547.889 504.335 556.255 496.733C577.872 477.107 582.715 448.696 569.151 422.119C566.831 407.431 560.201 396.963 557.28 392.346C556.551 391.196 555.815 390.046 555.078 388.905C552.834 385.404 550.506 381.785 549.413 379.443C549.329 379.274 549.261 379.113 549.193 378.961C548.44 366.573 545.154 344.655 532.326 322.391C518.821 298.943 491.286 268.976 436.79 259.404L434.97 259.083L433.107 258.897C427.756 258.355 420.194 255.793 412.167 253.079L409.153 252.064C403.886 250.289 400.211 248.547 397.917 246.729C393.539 243.253 390.415 239.085 385.673 232.777C380.169 225.454 373.319 216.338 363.125 206.657C352.481 196.535 340.39 193.229 329.721 190.311C329.721 190.311 328.756 190.049 328.324 189.931C318.307 185.652 308.68 183.572 298.909 183.572C281.898 183.572 265.937 190.176 253.982 202.175C253.533 202.632 253.067 203.08 252.559 203.57C250.468 205.608 247.961 208.052 245.294 211.096C223.279 222.486 209.765 242.932 208.656 266.591C203.55 281.55 205.616 294.149 208.351 302.224C208.419 302.419 208.487 302.613 208.555 302.799C201.882 321.639 203.339 340.808 212.746 357.052C214.389 359.884 216.26 362.59 218.351 365.135C216.996 367.993 215.608 370.784 214.194 373.49C209.884 381.726 206.268 390.401 203.178 399.948C194.931 411.143 190.502 424.411 190.257 438.659C184.126 450.683 182.306 463.51 184.999 475.94C188.081 490.222 196.726 502.449 209.986 511.294C217.132 516.063 225.032 519.378 233.491 521.154C238.961 522.295 244.608 522.879 250.29 522.879C258.401 522.879 266.344 521.779 275.285 519.429C292.321 514.939 305.64 505.595 313.964 492.328C315.098 491.431 316.199 490.501 317.249 489.529C322.888 497.858 329.62 505.282 337.672 512.072C349.552 522.092 363.574 527.394 378.23 527.394C383.387 527.428 388.484 526.76 393.429 525.441ZM393.285 512.224C397.544 513.594 402.057 514.347 406.782 514.482C407.493 514.499 408.205 514.507 408.924 514.507C409.619 514.507 410.304 514.499 411.033 514.49C411.346 514.49 411.651 514.482 411.964 514.482C414.072 514.609 416.198 514.668 418.467 514.668C423.141 514.668 427.29 514.406 431.346 514.161C434.318 513.975 437.129 513.797 439.432 513.797C440.727 513.797 441.777 513.856 442.548 513.958C444.546 514.237 446.578 514.381 448.593 514.381C454.91 514.381 461.023 513.019 466.612 510.398C471.87 512.563 477.492 513.687 483.216 513.687C488.957 513.687 494.656 512.579 500.159 510.381C505.485 508.259 511.793 505.578 518.228 501.748C521.294 499.93 522.623 499.278 523.173 499.05C532.445 497.646 540.701 493.706 547.711 487.339C565.467 471.214 568.897 447.918 556.882 426.068C555.298 412.936 549.244 403.381 546.551 399.119C545.832 397.986 545.112 396.862 544.392 395.737C541.81 391.712 539.371 387.907 537.923 384.821C537.195 383.273 536.814 382.335 536.628 381.819C536.179 370.64 533.52 349.89 521.327 328.708C509.177 307.602 484.266 280.611 434.606 271.893L433.234 271.656L431.837 271.513C425.046 270.828 416.824 268.046 408.103 265.095L405.106 264.08C398.323 261.797 393.531 259.438 390.017 256.639C384.369 252.149 380.669 247.211 375.529 240.378C370.313 233.436 363.819 224.786 354.395 215.84C346.055 207.925 336.055 205.194 326.377 202.547C325.801 202.386 324.87 202.133 324.091 201.913C315.412 198.108 307.165 196.256 298.917 196.256C285.31 196.256 272.542 201.541 262.982 211.121C262.491 211.612 261.992 212.102 261.441 212.643C259.053 214.977 256.191 217.759 253.296 221.302C233.558 230.603 221.577 248.445 221.289 269.01C216.607 281.288 218.148 291.553 220.383 298.182C220.832 299.51 221.349 300.804 221.924 302.072C221.764 302.875 221.611 303.687 221.476 304.524C221.416 304.668 221.357 304.812 221.306 304.955C215.032 320.92 215.887 337.172 223.736 350.718C226.285 355.124 229.57 359.14 233.431 362.616C230.925 368.408 228.249 374.022 225.447 379.383C221.179 387.543 217.623 396.244 214.617 405.909C206.59 416.022 202.577 428.343 202.975 441.737C202.975 441.787 202.975 441.83 202.975 441.872C197.081 452.036 195.159 462.868 197.412 473.302C199.782 484.295 206.573 493.808 217.039 500.792C222.822 504.656 229.232 507.345 236.09 508.783C240.705 509.747 245.48 510.237 250.29 510.237C257.275 510.237 264.193 509.273 272.042 507.21C286.589 503.38 297.698 495.355 304.167 484.016C304.218 483.923 304.277 483.821 304.328 483.728C311.093 478.959 316.106 472.558 319.078 465.092C320.06 468.237 321.517 472.11 323.887 476.253C329.586 486.197 336.775 494.763 345.86 502.432C355.411 510.491 366.605 514.753 378.222 514.753C383.395 514.744 388.442 513.899 393.285 512.224ZM393.158 498.551C397.341 500.555 402.049 501.663 407.138 501.807C407.73 501.824 408.323 501.832 408.933 501.832C409.568 501.832 410.203 501.824 410.838 501.815C411.227 501.807 411.617 501.807 412.006 501.807C412.184 501.807 412.328 501.807 412.43 501.815C414.369 501.942 416.342 502.001 418.458 502.001C422.734 502.001 426.68 501.756 430.524 501.519C433.708 501.316 436.705 501.13 439.423 501.13C441.337 501.13 442.946 501.223 444.326 501.418C445.732 501.621 447.171 501.722 448.585 501.722C453.521 501.722 459.974 500.555 466.231 495.947C471.303 499.245 477.103 501.02 483.208 501.02C487.331 501.02 491.446 500.209 495.443 498.619C500.312 496.683 506.044 494.247 511.717 490.873C515.688 488.514 518.753 486.882 520.802 486.595C527.746 485.631 533.927 482.73 539.16 477.97C552.936 465.464 555.053 447.757 544.833 430.6C544.706 430.38 544.587 430.186 544.485 430.008C543.783 418.508 538.474 410.12 535.806 405.909C535.104 404.802 534.401 403.702 533.69 402.595C530.879 398.206 528.22 394.063 526.416 390.224C524.824 386.825 523.995 384.525 523.961 383.375C523.69 373.718 521.556 354.591 510.303 335.041C499.499 316.278 477.213 292.263 432.396 284.391L431.481 284.23L430.55 284.137C422.32 283.308 413.437 280.298 404.03 277.11L401.041 276.104C392.82 273.339 386.799 270.312 382.091 266.566C375.174 261.061 370.847 255.303 365.36 247.997C360.424 241.427 354.285 233.25 345.631 225.039C339.611 219.323 331.923 217.218 323.007 214.783C322.16 214.554 320.568 214.115 319.721 213.869C312.397 210.555 305.581 208.948 298.9 208.948C288.689 208.948 279.121 212.905 271.966 220.084C271.424 220.626 270.874 221.167 270.306 221.725C267.58 224.388 264.345 227.542 261.348 231.618C243.778 238.763 233.313 253.95 234.007 271.453C231.831 276.307 229.181 284.594 232.407 294.123C233.16 296.356 234.168 298.444 235.43 300.398C234.515 303.34 234.075 305.936 233.804 307.89C233.787 307.94 233.762 307.983 233.745 308.033C233.533 308.549 233.321 309.073 233.118 309.589C228.283 321.884 228.851 334.238 234.718 344.368C238.038 350.101 242.915 354.819 248.952 358.244C245.26 367.664 241.145 376.728 236.691 385.252C232.441 393.378 228.952 402.13 226.014 412.014C226.014 412.023 226.006 412.04 226.006 412.048C218.893 420.107 215.32 430.194 215.65 441.356C215.769 445.28 214.99 446.523 214.727 446.928C204.77 462.8 208.444 479.805 224.084 490.248C228.512 493.207 233.423 495.262 238.681 496.37C242.432 497.156 246.336 497.553 250.273 497.553C256.141 497.553 262.025 496.725 268.791 494.941C280.12 491.956 288.308 486.163 293.117 477.733C293.634 476.82 294.116 475.881 294.54 474.926C294.828 474.765 295.107 474.596 295.387 474.418C305.014 468.457 309.967 458.623 309.476 446.556C312.169 443.529 314.379 440.367 316.216 437.145C317.224 438.625 318.274 440.088 319.383 441.525C320.602 443.115 321.788 444.595 322.956 446.041C326.123 449.981 328.858 453.38 329.713 455.993C329.789 456.238 329.984 456.974 330.119 457.481C330.898 460.483 332.084 465.024 334.903 469.945C339.848 478.579 346.114 486.037 354.048 492.725C361.279 498.83 369.636 502.052 378.205 502.052C383.429 502.06 388.459 500.877 393.158 498.551ZM387.561 487.161C389.72 486.087 391.71 484.827 393.505 483.398C396.587 486.578 401.177 488.945 407.485 489.115C407.959 489.131 408.442 489.131 408.916 489.131H408.924C409.5 489.131 410.076 489.123 410.643 489.115C411.092 489.106 411.549 489.098 411.998 489.098C412.514 489.098 412.904 489.106 413.234 489.131C414.902 489.241 416.613 489.292 418.458 489.292C422.353 489.292 426.104 489.055 429.728 488.836C433.115 488.624 436.316 488.421 439.415 488.421C441.93 488.421 444.123 488.556 446.104 488.836C446.925 488.954 447.764 489.013 448.577 489.013C454.478 489.013 459.525 486.214 463.581 480.693C464.377 479.602 465.113 478.502 465.799 477.386C465.96 477.657 466.121 477.936 466.299 478.207C471.929 487.009 479.313 488.32 483.208 488.32C485.714 488.32 488.246 487.812 490.744 486.823C495.155 485.064 500.32 482.874 505.223 479.957C510.811 476.634 514.858 474.596 519.05 474.012C523.41 473.404 527.305 471.569 530.616 468.567C535.967 463.713 543.503 453.16 533.918 437.069C532.648 434.938 531.954 433.543 531.861 432.934C531.988 424.326 528.423 417.959 525.078 412.674C524.393 411.592 523.698 410.509 523.004 409.435C519.956 404.683 517.077 400.193 514.918 395.593C513.089 391.687 511.378 387.552 511.268 383.721C511.031 375.257 509.16 358.489 499.296 341.358C489.846 324.945 470.185 303.898 430.203 296.88L429.745 296.795L429.28 296.745C419.618 295.772 410.067 292.542 399.966 289.118L396.994 288.111C387.324 284.864 380.085 281.161 374.183 276.476C365.995 269.965 360.991 263.31 355.208 255.599C350.314 249.088 344.768 241.706 336.885 234.214C333.345 230.857 328.299 229.36 319.671 227.001C318.087 226.57 315.954 225.987 315.141 225.707C309.239 222.951 303.922 221.606 298.9 221.606C292 221.606 285.793 224.168 280.958 229.014C280.374 229.597 279.773 230.181 279.172 230.772C275.98 233.884 272.372 237.402 269.612 242.069C269.392 242.154 269.07 242.264 268.63 242.416C253.956 247.321 245.582 258.77 246.784 272.316C246.92 273.796 246.827 273.322 246.835 273.322L246.742 274.278C245.252 277.178 242.136 283.224 244.447 290.039C245.675 293.675 248.021 296.212 250.391 298.013C247.225 302.994 246.581 308.033 246.225 310.951C246.124 311.314 245.768 312.185 245.506 312.828C245.32 313.284 245.133 313.741 244.947 314.206C240.603 325.258 242.974 333.249 245.726 338.001C249.494 344.512 256.403 349.052 265.345 350.938C264.718 352.477 264.1 354.05 263.516 355.656C258.994 368.095 253.761 380.026 247.961 391.112C244.092 398.502 240.908 406.518 238.207 415.6C237.496 418.001 236.852 419.016 236.446 419.439C230.832 425.282 228.106 432.52 228.36 440.959C228.52 446.26 227.606 450.285 225.506 453.642C219.156 463.764 221.162 473.015 231.154 479.678C234.227 481.733 237.64 483.162 241.298 483.931C244.193 484.54 247.216 484.844 250.281 484.844C255.023 484.844 259.883 484.151 265.556 482.654C268.503 481.876 277.47 479.517 282.084 471.433C283.185 469.506 283.871 467.544 284.277 465.624C285.81 465.159 287.3 464.483 288.697 463.612C294.777 459.849 297.461 453.735 296.682 445.449C296.479 443.318 296.47 442.185 296.53 441.584C306.369 432.773 309.781 421.637 312.423 410.966C312.77 409.562 313.244 408.159 313.82 406.738C314.717 407.228 315.615 407.719 316.512 408.209C319.095 417.359 323.456 425.958 329.459 433.797C330.602 435.285 331.745 436.714 332.854 438.092C336.792 442.988 340.187 447.224 341.77 452.01C341.974 452.619 342.185 453.431 342.405 454.277C343.091 456.906 343.946 460.187 345.919 463.637C350.119 470.96 355.453 477.31 362.236 483.026C367.147 487.17 372.667 489.36 378.197 489.36C381.473 489.377 384.615 488.633 387.561 487.161ZM396.689 428.106C401.126 427.336 405.283 426.778 409.221 426.44C409.034 431.387 408.484 444.95 408.662 450.192C407.612 444.798 404.318 430.592 396.681 428.985C396.681 428.486 396.681 428.596 396.689 428.106Z" stroke="#0246CD" stroke-width="11" stroke-miterlimit="10"/>
<mask id="path-2-outside-1_94_466" maskUnits="userSpaceOnUse" x="229.057" y="228.36" width="303" height="255" fill="black">
<rect fill="white" x="229.057" y="228.36" width="303" height="255"/>
<path d="M498.754 384.504C498.923 390.49 501.088 396.077 503.609 401.453C506.665 407.964 510.722 413.916 514.559 419.978C517.165 424.09 519.482 428.143 519.389 433.357C519.321 437.24 521.231 440.776 523.243 444.15C527.317 450.984 526.935 455.613 522.309 459.818C520.917 461.082 519.363 461.836 517.53 462.091C510.663 463.04 504.763 466.228 498.906 469.721C494.891 472.112 490.537 473.986 486.182 475.715C482.328 477.25 479.51 475.758 477.125 472.036C474.808 468.407 476.48 465.906 479.307 463.973C481.963 462.158 482.541 459.861 482.456 456.885C482.354 453.036 482.006 449.135 482.948 445.32C483.364 443.624 482.575 442.378 481.658 441.14C478.127 436.367 474.587 431.594 471.056 426.812C470.377 425.888 469.638 424.913 468.357 425.591C466.896 426.371 466.277 427.753 466.268 429.398C466.234 435.79 465.403 442.149 463.51 448.186C460.751 456.953 459.036 466.194 453.408 473.859C452.033 475.732 450.454 477.309 447.942 476.953C436.618 475.351 425.329 477.877 414.014 477.157C411.942 477.021 409.863 477.174 407.783 477.114C404.804 477.03 402.121 476.046 401.256 473.002C400.373 469.899 401.884 467.474 404.43 465.524C407.69 463.04 411.365 461.472 415.227 460.395C417.723 459.7 419.548 457.962 421.806 456.944C422.876 456.461 422.952 455.681 422.808 454.562C421.152 441.776 421.679 428.965 422.494 416.163C422.604 414.408 422.112 413.908 420.567 413.882C411.433 413.687 402.401 414.688 393.429 416.298C392.487 416.468 391.587 416.9 390.637 417.036C385.195 417.791 384.211 418.715 383.965 424.294C383.778 428.711 383.948 433.137 383.854 437.554C383.786 440.767 385.289 442.115 388.43 441.852C388.981 441.81 389.533 441.836 390.093 441.836C392.818 441.861 396.163 441.174 396.646 445.074C397.079 448.61 394.516 450.746 391.825 452.552C391.715 452.629 391.562 452.629 391.434 452.679C383.812 455.655 383.795 455.681 389.592 461.446C390.891 462.735 391.587 464.253 391.12 465.931C389.737 470.917 386.027 474.367 381.783 476.478C377.938 478.395 373.863 477.013 370.307 474.011C364.849 469.407 360.333 464.168 356.785 457.97C355.096 455.02 354.68 451.713 353.661 448.635C350.783 439.928 344.68 433.586 339.333 426.625C334.24 419.995 330.479 412.619 328.306 404.547C327.525 401.656 326.133 399.579 323.544 398.189C319.648 396.094 315.794 393.924 311.881 391.855C309.182 390.422 307.229 391.109 305.786 393.907C303.376 398.587 301.05 403.293 299.777 408.422C297.502 417.587 294.904 426.481 287.299 433.06C283.037 436.748 283.199 442.149 283.674 447.253C283.912 449.771 284.014 452.001 281.637 453.468C279.226 454.96 276.883 454.468 274.651 452.917C273.666 452.23 272.732 451.077 271.366 452.12C270.025 453.137 270.322 454.418 270.729 455.859C273.233 464.651 270.848 468.712 261.893 471.078C255.815 472.68 249.695 473.519 243.43 472.205C241.359 471.773 239.458 470.976 237.726 469.814C233.473 466.974 233.049 465.372 235.774 461.031C239.602 454.926 240.774 448.186 240.57 441.191C240.426 436.342 241.724 432.348 245.137 428.796C247.522 426.312 248.922 423.132 249.924 419.749C252.199 412.068 255.043 404.615 258.777 397.468C265.042 385.479 270.424 373.101 275.05 360.366C277.63 353.261 281.127 346.487 283.487 339.263C284.251 336.932 284.387 336.152 281.45 336.313C278.683 336.466 276.077 336.084 273.7 338.187C272.707 339.06 270.763 339.391 269.363 339.179C258.896 337.619 251.486 331.438 256.324 319.119C257.139 317.058 258.115 315.049 258.378 312.845C258.879 308.69 259.66 305.053 263.395 302.069C266.782 299.364 264.898 291.877 261.035 290.038C255.195 287.257 254.712 285.875 257.598 280.262C259.041 277.447 259.27 274.378 259.007 271.36C258.2 262.305 265.169 256.938 272.266 254.572C275.712 253.419 278.063 252.292 280.041 248.866C282.392 244.78 286.195 241.465 289.607 238.048C295.167 232.469 302.629 234.038 309.691 237.378C312.39 238.658 325.641 241.38 327.873 243.491C343.789 258.6 348.916 272.92 366.105 286.587C374.059 292.912 383.209 297.117 392.835 300.356C404.354 304.231 415.822 308.385 427.994 309.614C495.095 321.391 498.499 375.28 498.754 384.504Z"/>
</mask>
<path d="M498.754 384.504C498.923 390.49 501.088 396.077 503.609 401.453C506.665 407.964 510.722 413.916 514.559 419.978C517.165 424.09 519.482 428.143 519.389 433.357C519.321 437.24 521.231 440.776 523.243 444.15C527.317 450.984 526.935 455.613 522.309 459.818C520.917 461.082 519.363 461.836 517.53 462.091C510.663 463.04 504.763 466.228 498.906 469.721C494.891 472.112 490.537 473.986 486.182 475.715C482.328 477.25 479.51 475.758 477.125 472.036C474.808 468.407 476.48 465.906 479.307 463.973C481.963 462.158 482.541 459.861 482.456 456.885C482.354 453.036 482.006 449.135 482.948 445.32C483.364 443.624 482.575 442.378 481.658 441.14C478.127 436.367 474.587 431.594 471.056 426.812C470.377 425.888 469.638 424.913 468.357 425.591C466.896 426.371 466.277 427.753 466.268 429.398C466.234 435.79 465.403 442.149 463.51 448.186C460.751 456.953 459.036 466.194 453.408 473.859C452.033 475.732 450.454 477.309 447.942 476.953C436.618 475.351 425.329 477.877 414.014 477.157C411.942 477.021 409.863 477.174 407.783 477.114C404.804 477.03 402.121 476.046 401.256 473.002C400.373 469.899 401.884 467.474 404.43 465.524C407.69 463.04 411.365 461.472 415.227 460.395C417.723 459.7 419.548 457.962 421.806 456.944C422.876 456.461 422.952 455.681 422.808 454.562C421.152 441.776 421.679 428.965 422.494 416.163C422.604 414.408 422.112 413.908 420.567 413.882C411.433 413.687 402.401 414.688 393.429 416.298C392.487 416.468 391.587 416.9 390.637 417.036C385.195 417.791 384.211 418.715 383.965 424.294C383.778 428.711 383.948 433.137 383.854 437.554C383.786 440.767 385.289 442.115 388.43 441.852C388.981 441.81 389.533 441.836 390.093 441.836C392.818 441.861 396.163 441.174 396.646 445.074C397.079 448.61 394.516 450.746 391.825 452.552C391.715 452.629 391.562 452.629 391.434 452.679C383.812 455.655 383.795 455.681 389.592 461.446C390.891 462.735 391.587 464.253 391.12 465.931C389.737 470.917 386.027 474.367 381.783 476.478C377.938 478.395 373.863 477.013 370.307 474.011C364.849 469.407 360.333 464.168 356.785 457.97C355.096 455.02 354.68 451.713 353.661 448.635C350.783 439.928 344.68 433.586 339.333 426.625C334.24 419.995 330.479 412.619 328.306 404.547C327.525 401.656 326.133 399.579 323.544 398.189C319.648 396.094 315.794 393.924 311.881 391.855C309.182 390.422 307.229 391.109 305.786 393.907C303.376 398.587 301.05 403.293 299.777 408.422C297.502 417.587 294.904 426.481 287.299 433.06C283.037 436.748 283.199 442.149 283.674 447.253C283.912 449.771 284.014 452.001 281.637 453.468C279.226 454.96 276.883 454.468 274.651 452.917C273.666 452.23 272.732 451.077 271.366 452.12C270.025 453.137 270.322 454.418 270.729 455.859C273.233 464.651 270.848 468.712 261.893 471.078C255.815 472.68 249.695 473.519 243.43 472.205C241.359 471.773 239.458 470.976 237.726 469.814C233.473 466.974 233.049 465.372 235.774 461.031C239.602 454.926 240.774 448.186 240.57 441.191C240.426 436.342 241.724 432.348 245.137 428.796C247.522 426.312 248.922 423.132 249.924 419.749C252.199 412.068 255.043 404.615 258.777 397.468C265.042 385.479 270.424 373.101 275.05 360.366C277.63 353.261 281.127 346.487 283.487 339.263C284.251 336.932 284.387 336.152 281.45 336.313C278.683 336.466 276.077 336.084 273.7 338.187C272.707 339.06 270.763 339.391 269.363 339.179C258.896 337.619 251.486 331.438 256.324 319.119C257.139 317.058 258.115 315.049 258.378 312.845C258.879 308.69 259.66 305.053 263.395 302.069C266.782 299.364 264.898 291.877 261.035 290.038C255.195 287.257 254.712 285.875 257.598 280.262C259.041 277.447 259.27 274.378 259.007 271.36C258.2 262.305 265.169 256.938 272.266 254.572C275.712 253.419 278.063 252.292 280.041 248.866C282.392 244.78 286.195 241.465 289.607 238.048C295.167 232.469 302.629 234.038 309.691 237.378C312.39 238.658 325.641 241.38 327.873 243.491C343.789 258.6 348.916 272.92 366.105 286.587C374.059 292.912 383.209 297.117 392.835 300.356C404.354 304.231 415.822 308.385 427.994 309.614C495.095 321.391 498.499 375.28 498.754 384.504Z" fill="#0246CD"/>
<path d="M498.754 384.504C498.923 390.49 501.088 396.077 503.609 401.453C506.665 407.964 510.722 413.916 514.559 419.978C517.165 424.09 519.482 428.143 519.389 433.357C519.321 437.24 521.231 440.776 523.243 444.15C527.317 450.984 526.935 455.613 522.309 459.818C520.917 461.082 519.363 461.836 517.53 462.091C510.663 463.04 504.763 466.228 498.906 469.721C494.891 472.112 490.537 473.986 486.182 475.715C482.328 477.25 479.51 475.758 477.125 472.036C474.808 468.407 476.48 465.906 479.307 463.973C481.963 462.158 482.541 459.861 482.456 456.885C482.354 453.036 482.006 449.135 482.948 445.32C483.364 443.624 482.575 442.378 481.658 441.14C478.127 436.367 474.587 431.594 471.056 426.812C470.377 425.888 469.638 424.913 468.357 425.591C466.896 426.371 466.277 427.753 466.268 429.398C466.234 435.79 465.403 442.149 463.51 448.186C460.751 456.953 459.036 466.194 453.408 473.859C452.033 475.732 450.454 477.309 447.942 476.953C436.618 475.351 425.329 477.877 414.014 477.157C411.942 477.021 409.863 477.174 407.783 477.114C404.804 477.03 402.121 476.046 401.256 473.002C400.373 469.899 401.884 467.474 404.43 465.524C407.69 463.04 411.365 461.472 415.227 460.395C417.723 459.7 419.548 457.962 421.806 456.944C422.876 456.461 422.952 455.681 422.808 454.562C421.152 441.776 421.679 428.965 422.494 416.163C422.604 414.408 422.112 413.908 420.567 413.882C411.433 413.687 402.401 414.688 393.429 416.298C392.487 416.468 391.587 416.9 390.637 417.036C385.195 417.791 384.211 418.715 383.965 424.294C383.778 428.711 383.948 433.137 383.854 437.554C383.786 440.767 385.289 442.115 388.43 441.852C388.981 441.81 389.533 441.836 390.093 441.836C392.818 441.861 396.163 441.174 396.646 445.074C397.079 448.61 394.516 450.746 391.825 452.552C391.715 452.629 391.562 452.629 391.434 452.679C383.812 455.655 383.795 455.681 389.592 461.446C390.891 462.735 391.587 464.253 391.12 465.931C389.737 470.917 386.027 474.367 381.783 476.478C377.938 478.395 373.863 477.013 370.307 474.011C364.849 469.407 360.333 464.168 356.785 457.97C355.096 455.02 354.68 451.713 353.661 448.635C350.783 439.928 344.68 433.586 339.333 426.625C334.24 419.995 330.479 412.619 328.306 404.547C327.525 401.656 326.133 399.579 323.544 398.189C319.648 396.094 315.794 393.924 311.881 391.855C309.182 390.422 307.229 391.109 305.786 393.907C303.376 398.587 301.05 403.293 299.777 408.422C297.502 417.587 294.904 426.481 287.299 433.06C283.037 436.748 283.199 442.149 283.674 447.253C283.912 449.771 284.014 452.001 281.637 453.468C279.226 454.96 276.883 454.468 274.651 452.917C273.666 452.23 272.732 451.077 271.366 452.12C270.025 453.137 270.322 454.418 270.729 455.859C273.233 464.651 270.848 468.712 261.893 471.078C255.815 472.68 249.695 473.519 243.43 472.205C241.359 471.773 239.458 470.976 237.726 469.814C233.473 466.974 233.049 465.372 235.774 461.031C239.602 454.926 240.774 448.186 240.57 441.191C240.426 436.342 241.724 432.348 245.137 428.796C247.522 426.312 248.922 423.132 249.924 419.749C252.199 412.068 255.043 404.615 258.777 397.468C265.042 385.479 270.424 373.101 275.05 360.366C277.63 353.261 281.127 346.487 283.487 339.263C284.251 336.932 284.387 336.152 281.45 336.313C278.683 336.466 276.077 336.084 273.7 338.187C272.707 339.06 270.763 339.391 269.363 339.179C258.896 337.619 251.486 331.438 256.324 319.119C257.139 317.058 258.115 315.049 258.378 312.845C258.879 308.69 259.66 305.053 263.395 302.069C266.782 299.364 264.898 291.877 261.035 290.038C255.195 287.257 254.712 285.875 257.598 280.262C259.041 277.447 259.27 274.378 259.007 271.36C258.2 262.305 265.169 256.938 272.266 254.572C275.712 253.419 278.063 252.292 280.041 248.866C282.392 244.78 286.195 241.465 289.607 238.048C295.167 232.469 302.629 234.038 309.691 237.378C312.39 238.658 325.641 241.38 327.873 243.491C343.789 258.6 348.916 272.92 366.105 286.587C374.059 292.912 383.209 297.117 392.835 300.356C404.354 304.231 415.822 308.385 427.994 309.614C495.095 321.391 498.499 375.28 498.754 384.504Z" stroke="#0246CD" stroke-width="10" mask="url(#path-2-outside-1_94_466)"/>
</svg>
