<svg width="12" height="16" viewBox="0 0 12 16" fill="none" xmlns="http://www.w3.org/2000/svg">
<g id="Group 386">
<path id="Vector" fill-rule="evenodd" clip-rule="evenodd" d="M5.96092 0.147339L8.59182 4.07825L11.2227 8.01007L5.96092 10.661L0.699097 8.00007L3.33001 4.06825L5.96092 0.147339ZM5.96092 11.7201L0.990915 9.06825L5.96092 15.8528L10.9309 9.06825L5.96092 11.7201Z" fill="#161514"/>
<path id="Vector_2" fill-rule="evenodd" clip-rule="evenodd" d="M5.96094 0.147339L8.59185 4.06825L11.2228 8.00007L5.96094 6.0137V0.147339Z" fill="#161514"/>
<path id="Vector_3" fill-rule="evenodd" clip-rule="evenodd" d="M5.96094 11.7201L10.9409 9.06824L5.96094 15.8628V11.7201Z" fill="#161514"/>
<path id="Vector_4" fill-rule="evenodd" clip-rule="evenodd" d="M5.96094 6.01367L11.2228 8.00004L5.96094 10.6509V6.01367Z" fill="#161514"/>
<path id="Vector_5" fill-rule="evenodd" clip-rule="evenodd" d="M5.96091 0.147339L3.33001 4.06825L0.699097 8.00007L5.96091 6.0137V0.147339Z" fill="#8C8C8C"/>
<path id="Vector_6" fill-rule="evenodd" clip-rule="evenodd" d="M5.96094 11.7201L0.990936 9.06824L5.96094 15.8628V11.7201Z" fill="#8A8A8A"/>
<path id="Vector_7" fill-rule="evenodd" clip-rule="evenodd" d="M5.96091 6.01367L0.699097 8.00004L5.96091 10.6509V6.01367Z" fill="#353535"/>
</g>
</svg>
